<svg id="Layer_1" data-name="Layer 1" xmlns="http://www.w3.org/2000/svg" xmlns:xlink="http://www.w3.org/1999/xlink" viewBox="0 0 800 800"><defs><style>.cls-1{fill:#fff;}.cls-2{mask:url(#mask);}.cls-3{filter:url(#luminosity-invert-noclip);}</style><filter id="luminosity-invert-noclip" x="133.67" y="289.9" width="532.65" height="220.2" filterUnits="userSpaceOnUse" color-interpolation-filters="sRGB"><feColorMatrix values="-1 0 0 0 1 0 -1 0 0 1 0 0 -1 0 1 0 0 0 1 0" result="invert"/><feFlood flood-color="#fff" result="bg"/><feBlend in="invert" in2="bg"/></filter><mask id="mask" x="133.67" y="289.9" width="532.65" height="220.2" maskUnits="userSpaceOnUse"><g class="cls-3"><path class="cls-1" d="M296,400.13a58.78,58.78,0,0,0-17.67-11A132.39,132.39,0,0,0,253.57,382q-14.19-2.83-23.72-4.9a112.57,112.57,0,0,1-15.35-4.26c-3.86-1.45-6.62-3.05-8.25-4.77a9,9,0,0,1-2.45-6.45,9.55,9.55,0,0,1,2.2-6.44,14.47,14.47,0,0,1,5.67-4,34.11,34.11,0,0,1,8-2.06,66.42,66.42,0,0,1,9.41-.65,39.45,39.45,0,0,1,11.35,1.42,32.84,32.84,0,0,1,7.74,3.35,23.92,23.92,0,0,1,4.77,3.74c1.12,1.21,1.93,2.06,2.44,2.58a19.35,19.35,0,0,0,4.52,3.1,13.85,13.85,0,0,0,5.8,1h33.78a5.19,5.19,0,0,0,3.75-1.68,5.47,5.47,0,0,0,1.67-4q-.27-8.25-5.93-17.27a61.64,61.64,0,0,0-15.73-16.51,88.22,88.22,0,0,0-23.86-12.25,92.18,92.18,0,0,0-30.3-4.77,95.71,95.71,0,0,0-30.3,4.51,72.86,72.86,0,0,0-23.07,12.25,53.62,53.62,0,0,0-14.57,17.8,46.55,46.55,0,0,0-5,21.14q0,22.18,12.25,35.46t38.8,19q14.19,3.09,24.63,5.15a152.09,152.09,0,0,1,17.15,4.26A34.24,34.24,0,0,1,259,431.46a7.85,7.85,0,0,1,3.35,6.45q0,7.72-9.15,10.7t-22.82,3a40.52,40.52,0,0,1-13-1.8,34.62,34.62,0,0,1-8.77-4.25,32.59,32.59,0,0,1-5.54-4.78q-2.07-2.31-3.1-3.35a16.68,16.68,0,0,0-4.12-2.71,14.56,14.56,0,0,0-5.68-.9H156.35a5.17,5.17,0,0,0-3.74,1.68,5.48,5.48,0,0,0-1.67,4,38.18,38.18,0,0,0,6.19,19.35,61.54,61.54,0,0,0,16.37,17.14,86.94,86.94,0,0,0,24.89,12.25,103.88,103.88,0,0,0,32,4.65A124.24,124.24,0,0,0,262.21,489a80.93,80.93,0,0,0,25.27-11.22,54.13,54.13,0,0,0,16.64-17.67,46.24,46.24,0,0,0,5.93-23.46,57.6,57.6,0,0,0-3.48-21A41.51,41.51,0,0,0,296,400.13Z"/><path class="cls-1" d="M437.85,361.33a1.53,1.53,0,0,0-1.52,1.52v14.33a1.52,1.52,0,1,0,3,0V362.85A1.53,1.53,0,0,0,437.85,361.33Z"/><path class="cls-1" d="M458.28,324.84a61.17,61.17,0,0,0-22.44-11.36,108.51,108.51,0,0,0-29.65-3.73H332.44a7,7,0,0,0-7,6.94V483.28a6.6,6.6,0,0,0,2.08,4.9,6.68,6.68,0,0,0,4.9,2.07H366.2a6.81,6.81,0,0,0,4.94-2.07,6.72,6.72,0,0,0,2-4.9V430.69h33a106,106,0,0,0,29.65-3.86,64.05,64.05,0,0,0,22.44-11.36,49.83,49.83,0,0,0,14.33-18.82c3.35-7.56,5-16.43,5-26.55s-1.66-18.75-5-26.31A51.07,51.07,0,0,0,458.28,324.84Zm-7.5,67.3a10.72,10.72,0,0,1-10.72,10.72h-91.3A10.75,10.75,0,0,1,338,392.14V347.89a10.75,10.75,0,0,1,10.72-10.72h91.3a10.72,10.72,0,0,1,10.72,10.72Z"/><path class="cls-1" d="M439.54,339.1H349.29a9.06,9.06,0,0,0-9.05,9v43.75a9.08,9.08,0,0,0,9.05,9h90.25a9,9,0,0,0,9-9V348.14A9,9,0,0,0,439.54,339.1Zm-92.32,35.53a4.61,4.61,0,1,1,4.62-4.63A4.61,4.61,0,0,1,347.22,374.63Zm95.7,16.71a3.93,3.93,0,0,1-3.94,3.93H358.33a3.93,3.93,0,0,1-3.93-3.93V348.7a3.93,3.93,0,0,1,3.93-3.94H439a3.93,3.93,0,0,1,3.94,3.94Z"/><path class="cls-1" d="M565.59,361a3.17,3.17,0,0,1-1.56-.41q-2.44-1.38-4.6-2.85c0,.2,0,.38,0,.58a7.16,7.16,0,1,0,3.38-6c1.37.95,2.82,1.87,4.4,2.76a3.18,3.18,0,0,1-1.57,6Z"/><path class="cls-1" d="M648.81,381.69a78.36,78.36,0,0,0-6.84-29,67.91,67.91,0,0,0-16.76-22.83A76.83,76.83,0,0,0,599.81,315a95.49,95.49,0,0,0-32.49-5.29H545c-.81,12.78.4,26.24,11.24,37.15l6-5.58a6.15,6.15,0,0,1,8.46,0l22.48,21.06a6.17,6.17,0,0,1,1.93,4.52v79.65a6.16,6.16,0,0,1-6.15,6.15H544a6.16,6.16,0,0,1-6.18-6.15V366.89a6.17,6.17,0,0,1,1.93-4.52l11.86-11.11c-11.81-11.9-13.77-26.63-12.93-41.52H499a7.05,7.05,0,0,0-7,7V483.29a7.05,7.05,0,0,0,7,7h69.63A93.32,93.32,0,0,0,600.84,485a74.29,74.29,0,0,0,24.89-14.83,68.72,68.72,0,0,0,16.37-22.69,79.58,79.58,0,0,0,6.71-29.14q.26-5.16.25-9.54V391.62Q649.06,387.11,648.81,381.69Z"/></g></mask></defs><g class="cls-2"><path class="cls-1" d="M230.37,510.1a121.47,121.47,0,0,1-37.27-5.48,104.74,104.74,0,0,1-29.76-14.72,78.83,78.83,0,0,1-20.87-22,55.3,55.3,0,0,1-8.79-28v-.41a22.86,22.86,0,0,1,6.71-16.23,22.5,22.5,0,0,1,16-6.75h6.33a62.56,62.56,0,0,1-7-6.5c-11.16-12.1-16.81-28-16.81-47.16A63.93,63.93,0,0,1,145.69,334a71.18,71.18,0,0,1,19.14-23.49A90.25,90.25,0,0,1,193.3,295.3a113.36,113.36,0,0,1,35.77-5.4A109.65,109.65,0,0,1,265,295.62a105.63,105.63,0,0,1,28.52,14.7A84.64,84.64,0,0,1,308.2,324.1v-7.41a24.28,24.28,0,0,1,24.24-24.2h73.74a126.37,126.37,0,0,1,34.37,4.38,78.56,78.56,0,0,1,28.69,14.63,66,66,0,0,1,5.52,5.1A24.29,24.29,0,0,1,499,292.48h68.34a113.19,113.19,0,0,1,38.33,6.3,94.4,94.4,0,0,1,31,18.18,85.54,85.54,0,0,1,21,28.56,95.89,95.89,0,0,1,8.37,35.33c.18,3.87.28,7.49.28,10.77v17.14c0,3.22-.1,6.71-.28,10.4a96.93,96.93,0,0,1-8.21,35.38,86.32,86.32,0,0,1-20.47,28.35,91.81,91.81,0,0,1-30.59,18.29,110.79,110.79,0,0,1-38.17,6.34H499a24.31,24.31,0,0,1-24.22-24.23V423.76a63.44,63.44,0,0,1-5.65,5.16,81.37,81.37,0,0,1-28.38,14.46A123.49,123.49,0,0,1,406.18,448H390.44v35.32a24.28,24.28,0,0,1-24.24,24.23H332.44a24.33,24.33,0,0,1-24.24-24.23v-.42A75.8,75.8,0,0,1,297.25,492a98.33,98.33,0,0,1-30.6,13.67A141.92,141.92,0,0,1,230.37,510.1Z"/><path class="cls-1" d="M662.6,381A92.46,92.46,0,0,0,654.54,347a82.23,82.23,0,0,0-20.14-27.41A91.14,91.14,0,0,0,604.48,302a109.56,109.56,0,0,0-37.16-6.1H499a20.86,20.86,0,0,0-20.77,20.77v9.41a63.83,63.83,0,0,0-11.16-11.94,75.24,75.24,0,0,0-27.44-14,123.06,123.06,0,0,0-33.43-4.25H332.44a20.84,20.84,0,0,0-20.79,20.75V335c-.33-.57-.65-1.14-1-1.7a75.79,75.79,0,0,0-19.18-20.23,101.78,101.78,0,0,0-27.59-14.22,106.31,106.31,0,0,0-34.81-5.53,109.91,109.91,0,0,0-34.67,5.22A86.77,86.77,0,0,0,167,313.2a67.55,67.55,0,0,0-18.22,22.34,60.51,60.51,0,0,0-6.49,27.32c0,18.3,5.35,33.38,15.9,44.82A63.67,63.67,0,0,0,174.07,420H156.35a19,19,0,0,0-13.52,5.74,19.34,19.34,0,0,0-5.7,13.74v.37a51.91,51.91,0,0,0,8.27,26.26,75.41,75.41,0,0,0,20,21,101.6,101.6,0,0,0,28.79,14.23,118.33,118.33,0,0,0,36.21,5.31,138.14,138.14,0,0,0,35.39-4.34,94.7,94.7,0,0,0,29.54-13.18,69.77,69.77,0,0,0,16.35-15.51v9.66a20.9,20.9,0,0,0,20.79,20.78H366.2A20.83,20.83,0,0,0,387,483.28V444.5h19.19a120,120,0,0,0,33.57-4.43,77.82,77.82,0,0,0,27.19-13.84,62.21,62.21,0,0,0,11.27-11.93v69A20.88,20.88,0,0,0,499,504.07h69.63a107.53,107.53,0,0,0,37-6.13A88.29,88.29,0,0,0,635,480.34a82.55,82.55,0,0,0,19.65-27.22A93.52,93.52,0,0,0,662.6,419c.18-3.64.27-7.08.27-10.22V391.62C662.87,388.39,662.78,384.83,662.6,381Z"/></g></svg>