<svg id="Layer_1" data-name="Layer 1" xmlns="http://www.w3.org/2000/svg" xmlns:xlink="http://www.w3.org/1999/xlink" viewBox="0 0 800 800"><defs><style>.cls-1{fill:#fff;}.cls-2{mask:url(#mask);}.cls-3{filter:url(#luminosity-invert-noclip);}</style><filter id="luminosity-invert-noclip" x="133.67" y="246" width="532.65" height="220.2" filterUnits="userSpaceOnUse" color-interpolation-filters="sRGB"><feColorMatrix values="-1 0 0 0 1 0 -1 0 0 1 0 0 -1 0 1 0 0 0 1 0" result="invert"/><feFlood flood-color="#fff" result="bg"/><feBlend in="invert" in2="bg"/></filter><mask id="mask" x="133.67" y="246" width="532.65" height="220.2" maskUnits="userSpaceOnUse"><g class="cls-3"><path class="cls-1" d="M296,356.22a59.18,59.18,0,0,0-17.67-11A133.91,133.91,0,0,0,253.57,338q-14.19-2.82-23.72-4.9a111.31,111.31,0,0,1-15.35-4.25c-3.86-1.46-6.62-3.05-8.25-4.77a9,9,0,0,1-2.45-6.45,9.53,9.53,0,0,1,2.2-6.44,14.47,14.47,0,0,1,5.67-4,33.62,33.62,0,0,1,8-2.07,68,68,0,0,1,9.41-.64,39.1,39.1,0,0,1,11.35,1.42,32.44,32.44,0,0,1,7.74,3.35,23.92,23.92,0,0,1,4.77,3.74c1.12,1.2,1.93,2.06,2.44,2.58a19.28,19.28,0,0,0,4.52,3.09,13.7,13.7,0,0,0,5.8,1h33.78a5.18,5.18,0,0,0,3.75-1.67,5.49,5.49,0,0,0,1.67-4q-.27-8.25-5.93-17.28a61.75,61.75,0,0,0-15.73-16.5A87.66,87.66,0,0,0,259.37,268a92.18,92.18,0,0,0-30.3-4.77,95.71,95.71,0,0,0-30.3,4.51A72.66,72.66,0,0,0,175.7,280a53.68,53.68,0,0,0-14.57,17.79,46.62,46.62,0,0,0-5,21.15q0,22.19,12.25,35.46t38.8,18.95q14.19,3.11,24.63,5.16a152.09,152.09,0,0,1,17.15,4.26A34.52,34.52,0,0,1,259,387.55a7.85,7.85,0,0,1,3.35,6.45q0,7.74-9.15,10.7t-22.82,3a40.5,40.5,0,0,1-13-1.81,34.29,34.29,0,0,1-8.77-4.25,32.14,32.14,0,0,1-5.54-4.77c-1.38-1.55-2.41-2.66-3.1-3.36a16.62,16.62,0,0,0-4.12-2.7,14.56,14.56,0,0,0-5.68-.9H156.35a5.16,5.16,0,0,0-3.74,1.67,5.49,5.49,0,0,0-1.67,4,38.18,38.18,0,0,0,6.19,19.34A61.57,61.57,0,0,0,173.5,432a87.47,87.47,0,0,0,24.89,12.25,104.19,104.19,0,0,0,32,4.64,123.8,123.8,0,0,0,31.84-3.87,80.7,80.7,0,0,0,25.27-11.22,54,54,0,0,0,16.64-17.66,46.25,46.25,0,0,0,5.93-23.47,57.64,57.64,0,0,0-3.48-21A41.59,41.59,0,0,0,296,356.22Z"/><path class="cls-1" d="M437.85,317.43a1.53,1.53,0,0,0-1.52,1.52v14.33a1.52,1.52,0,1,0,3,0V319A1.53,1.53,0,0,0,437.85,317.43Z"/><path class="cls-1" d="M458.28,280.94a61,61,0,0,0-22.44-11.36,108.51,108.51,0,0,0-29.65-3.73H332.44a7,7,0,0,0-7,6.94V439.37a7.09,7.09,0,0,0,7,7H366.2a6.81,6.81,0,0,0,4.94-2.07,6.74,6.74,0,0,0,2-4.91V386.79h33a105.67,105.67,0,0,0,29.65-3.87,63.89,63.89,0,0,0,22.44-11.36,49.8,49.8,0,0,0,14.33-18.81c3.35-7.56,5-16.44,5-26.55s-1.66-18.75-5-26.31A51.07,51.07,0,0,0,458.28,280.94Zm-7.5,67.3A10.72,10.72,0,0,1,440.06,359h-91.3A10.75,10.75,0,0,1,338,348.24V304a10.75,10.75,0,0,1,10.72-10.73h91.3A10.72,10.72,0,0,1,450.78,304Z"/><path class="cls-1" d="M439.54,295.19H349.29a9.06,9.06,0,0,0-9.05,9.05V348a9.08,9.08,0,0,0,9.05,9h90.25a9.05,9.05,0,0,0,9-9V304.24A9,9,0,0,0,439.54,295.19Zm-92.32,35.53a4.61,4.61,0,1,1,4.62-4.63A4.6,4.6,0,0,1,347.22,330.72Zm95.7,16.71a3.93,3.93,0,0,1-3.94,3.94H358.33a3.93,3.93,0,0,1-3.93-3.94V304.79a3.93,3.93,0,0,1,3.93-3.93H439a3.93,3.93,0,0,1,3.94,3.93Z"/><path class="cls-1" d="M565.59,317.06a3.17,3.17,0,0,1-1.56-.41q-2.44-1.38-4.6-2.85c0,.2,0,.39,0,.59a7.14,7.14,0,1,0,3.38-6c1.37.95,2.82,1.88,4.4,2.76a3.18,3.18,0,0,1-1.57,5.95Z"/><path class="cls-1" d="M648.81,337.79a78.46,78.46,0,0,0-6.84-29A68,68,0,0,0,625.21,286a76.86,76.86,0,0,0-25.4-14.83,95.49,95.49,0,0,0-32.49-5.28H545c-.81,12.78.4,26.24,11.24,37.15l6-5.59a6.17,6.17,0,0,1,8.46,0l22.48,21.06a6.21,6.21,0,0,1,1.93,4.53v79.65a6.16,6.16,0,0,1-6.15,6.14H544a6.16,6.16,0,0,1-6.18-6.14V323a6.21,6.21,0,0,1,1.93-4.53l11.86-11.11c-11.81-11.89-13.77-26.62-12.93-41.51H499a7,7,0,0,0-7,7V439.39a7,7,0,0,0,7,7h69.63a93.32,93.32,0,0,0,32.23-5.28,74.45,74.45,0,0,0,24.89-14.83,68.66,68.66,0,0,0,16.37-22.7,79.53,79.53,0,0,0,6.71-29.14q.26-5.14.25-9.54V347.71C649.06,344.71,649,341.39,648.81,337.79Z"/></g></mask></defs><g class="cls-2"><path class="cls-1" d="M230.37,466.2a121.77,121.77,0,0,1-37.27-5.48A104.49,104.49,0,0,1,163.34,446a78.7,78.7,0,0,1-20.87-22,55.27,55.27,0,0,1-8.79-28v-.4a22.85,22.85,0,0,1,6.71-16.23,22.51,22.51,0,0,1,16-6.76h6.33a61.57,61.57,0,0,1-7-6.49c-11.16-12.1-16.81-28-16.81-47.16a64,64,0,0,1,6.85-28.87,71.05,71.05,0,0,1,19.14-23.48A90.25,90.25,0,0,1,193.3,251.4a113.08,113.08,0,0,1,35.77-5.4A109.92,109.92,0,0,1,265,251.71a105.65,105.65,0,0,1,28.52,14.71,84.6,84.6,0,0,1,14.67,13.77v-7.4a24.29,24.29,0,0,1,24.24-24.21h73.74A126.36,126.36,0,0,1,440.55,253a78.54,78.54,0,0,1,28.69,14.62,66.15,66.15,0,0,1,5.52,5.11A24.31,24.31,0,0,1,499,248.57h68.34a112.94,112.94,0,0,1,38.33,6.31,94.23,94.23,0,0,1,31,18.18,85.61,85.61,0,0,1,21,28.55,96,96,0,0,1,8.37,35.33c.18,3.88.28,7.5.28,10.77v17.15c0,3.21-.1,6.71-.28,10.4a97,97,0,0,1-8.21,35.38A86.18,86.18,0,0,1,637.37,439a91.83,91.83,0,0,1-30.59,18.3,111,111,0,0,1-38.17,6.33H499a24.29,24.29,0,0,1-24.22-24.22V379.86a65,65,0,0,1-5.65,5.16,81.37,81.37,0,0,1-28.38,14.46,123.5,123.5,0,0,1-34.55,4.57H390.44v35.32a24.28,24.28,0,0,1-24.24,24.24H332.44a24.34,24.34,0,0,1-24.24-24.24V439a75.8,75.8,0,0,1-10.95,9.12,98.33,98.33,0,0,1-30.6,13.67A141.92,141.92,0,0,1,230.37,466.2Z"/><path class="cls-1" d="M662.6,337.11A92.51,92.51,0,0,0,654.54,303a82.44,82.44,0,0,0-20.14-27.41,90.94,90.94,0,0,0-29.92-17.5,109.56,109.56,0,0,0-37.16-6.1H499a20.84,20.84,0,0,0-20.77,20.77v9.41a64.2,64.2,0,0,0-11.16-11.95,75.07,75.07,0,0,0-27.44-14A123.06,123.06,0,0,0,406.18,252H332.44a20.83,20.83,0,0,0-20.79,20.75v18.33c-.33-.56-.65-1.13-1-1.7a75.94,75.94,0,0,0-19.18-20.23A102,102,0,0,0,263.88,255a106.31,106.31,0,0,0-34.81-5.53,109.62,109.62,0,0,0-34.67,5.22A86.75,86.75,0,0,0,167,269.29a67.58,67.58,0,0,0-18.22,22.35A60.51,60.51,0,0,0,142.29,319c0,18.3,5.35,33.38,15.9,44.82a64.14,64.14,0,0,0,15.88,12.29H156.35a19,19,0,0,0-13.52,5.74,19.34,19.34,0,0,0-5.7,13.74v.36a52,52,0,0,0,8.27,26.27,75.38,75.38,0,0,0,20,21,101.08,101.08,0,0,0,28.79,14.23,118,118,0,0,0,36.21,5.31,138.15,138.15,0,0,0,35.39-4.33,94.93,94.93,0,0,0,29.54-13.18,70,70,0,0,0,16.35-15.51v9.65a20.9,20.9,0,0,0,20.79,20.79H366.2A20.84,20.84,0,0,0,387,439.37V400.6h19.19a120.36,120.36,0,0,0,33.57-4.43,77.82,77.82,0,0,0,27.19-13.84,62.21,62.21,0,0,0,11.27-11.93v69A20.86,20.86,0,0,0,499,460.16h69.63a107.29,107.29,0,0,0,37-6.13A88.29,88.29,0,0,0,635,436.43a82.51,82.51,0,0,0,19.65-27.21,93.62,93.62,0,0,0,7.91-34.13c.18-3.64.27-7.08.27-10.23V347.71C662.87,344.49,662.78,340.93,662.6,337.11Z"/></g><path class="cls-1" d="M137.16,536.32v-4h10.45v4.82c0,4.52,1.9,6.83,5.72,6.83s5.83-2.31,5.83-7a13.8,13.8,0,0,0-2.11-7.63q-2-3.33-7.54-8.14c-4.52-4-7.73-7.64-9.64-11a22.47,22.47,0,0,1-2.71-11.05c0-11.15,5.72-17.48,16.47-17.48,10.55,0,16.08,6.33,16.08,17.68v2.92H159.26v-3.62c0-4.62-1.81-6.93-5.53-6.93s-5.62,2.21-5.62,6.73a12.53,12.53,0,0,0,2.11,7,43.61,43.61,0,0,0,7.63,8c4.63,4,7.84,7.74,9.55,11a23.68,23.68,0,0,1,2.71,11.56c0,11.55-5.83,17.88-16.68,17.88S137.16,547.67,137.16,536.32Z"/><path class="cls-1" d="M226.27,515.72V553H215.62V516.42c0-4.12-1.41-6.23-4.32-6.23-3.52,0-5.33,2.72-5.33,8.24V553H195.32V516.42c0-4.12-1.4-6.23-4.32-6.23-3.51,0-5.32,2.72-5.32,8.24V553H175V501.76h9.24l.2,5.92c1.91-4.62,5.23-6.93,10.05-6.93,5.12,0,8.54,2.31,10.25,6.83a10.51,10.51,0,0,1,10-6.83C222.45,500.75,226.27,505.77,226.27,515.72Z"/><path class="cls-1" d="M253.77,553c-.5-.91-.7-2.92-.8-6-2,4.72-5.63,7-10.85,7-6.83,0-11.15-4.92-11.15-12.86s3.41-12.66,12.35-17.08a38.36,38.36,0,0,0,6.94-3.92,4.62,4.62,0,0,0,1.4-3.41v-1c0-3.92-1.4-5.83-4.32-5.83-3.21,0-4.82,2-4.82,5.93v1.91H232.47v-1.31c0-10,5.23-15.67,15-15.67,10.45,0,14.87,5.33,14.87,16.88v20.6q0,9.79,1.21,14.77Zm-2.11-16.68v-8.74a34.4,34.4,0,0,1-5.22,3.82c-3.22,2-4.82,4.62-4.82,7.93,0,3.72,1.5,5.53,4.52,5.53C249.85,544.86,251.66,542.05,251.66,536.32Z"/><path class="cls-1" d="M291.07,501.35V511.7a11.24,11.24,0,0,0-2.71-.3q-9,0-9,12.06V553H268.67V501.76h9.24l.2,8.64q2.11-9.64,9.95-9.65A6.72,6.72,0,0,1,291.07,501.35Z"/><path class="cls-1" d="M318.12,510.8h-7.74v29.34c0,3.21,1.21,4.42,4.12,4.42a12.14,12.14,0,0,0,3.62-.61v9a15.52,15.52,0,0,1-5.83,1c-8.34,0-12.56-4.12-12.56-12.46V510.8h-5.82v-9h6.33l1-13.87h9.14v13.87h7.74Z"/><path class="cls-1" d="M322.84,553V482.66h16.28c10.95,0,16.48,5.83,16.48,17.39V507c0,11.55-5.53,17.38-16.48,17.38H333.9V553Zm11.06-38.69h5.22c3.62,0,5.43-1.8,5.43-6.63v-8.34c0-4.82-1.81-6.63-5.43-6.63H333.9Z"/><path class="cls-1" d="M391.52,515.72V553H380.87V516.93c0-4.52-1.5-6.74-4.42-6.74-3.62,0-5.42,2.72-5.42,8.24V553H360.37V482.66H371v22.71a10.23,10.23,0,0,1,9-4.62C387.7,500.75,391.52,505.77,391.52,515.72Z"/><path class="cls-1" d="M396.87,517.43c0-10.75,5.63-16.68,15.67-16.68s15.68,5.93,15.68,16.68v19.89c0,10.75-5.63,16.68-15.68,16.68s-15.67-5.93-15.67-16.68Zm20.7-1c0-4.12-1.71-6.23-5-6.23s-5,2.11-5,6.23v21.91c0,4.12,1.71,6.23,5,6.23s5-2.11,5-6.23Z"/><path class="cls-1" d="M464.92,515.72V553H454.27V516.93c0-4.52-1.5-6.74-4.42-6.74-3.61,0-5.42,2.72-5.42,8.24V553H433.78V501.76H443l.2,5.92q2.86-6.93,10.25-6.93C461.11,500.75,464.92,505.77,464.92,515.72Z"/><path class="cls-1" d="M501.82,529.69h-20.9v8.64c0,4.12,1.81,6.23,5.33,6.23s5.32-2.11,5.32-6.23v-1.91h10.25v.9c0,10.75-5.63,16.68-15.77,16.68s-15.78-5.93-15.78-16.68V517.43c0-10.75,5.63-16.68,15.78-16.68s15.77,5.93,15.77,16.68Zm-20.9-8.44h10.45v-4.83c0-4.12-1.71-6.23-5.22-6.23s-5.23,2.11-5.23,6.23Z"/><path class="cls-1" d="M507.2,553V482.66h16.88c10.95,0,16.48,5.83,16.48,17.39v35.57c0,11.55-5.53,17.38-16.48,17.38Zm11.05-10h5.63c3.71,0,5.62-2.31,5.62-6.83V499.54c0-4.52-1.91-6.83-5.62-6.83h-5.63Z"/><path class="cls-1" d="M577.12,529.69h-20.9v8.64c0,4.12,1.81,6.23,5.33,6.23s5.32-2.11,5.32-6.23v-1.91h10.25v.9c0,10.75-5.63,16.68-15.77,16.68s-15.78-5.93-15.78-16.68V517.43c0-10.75,5.63-16.68,15.78-16.68s15.77,5.93,15.77,16.68Zm-20.9-8.44h10.45v-4.83c0-4.12-1.71-6.23-5.22-6.23s-5.23,2.11-5.23,6.23Z"/><path class="cls-1" d="M604.15,553c-.5-.91-.7-2.92-.8-6-2,4.72-5.63,7-10.85,7-6.84,0-11.16-4.92-11.16-12.86s3.42-12.66,12.36-17.08a37.76,37.76,0,0,0,6.93-3.92,4.59,4.59,0,0,0,1.41-3.41v-1c0-3.92-1.41-5.83-4.32-5.83-3.21,0-4.82,2-4.82,5.93v1.91h-10v-1.31c0-10,5.23-15.67,15-15.67,10.45,0,14.87,5.33,14.87,16.88v20.6q0,9.79,1.21,14.77ZM602,536.32v-8.74a34.4,34.4,0,0,1-5.22,3.82c-3.22,2-4.83,4.62-4.83,7.93,0,3.72,1.51,5.53,4.53,5.53C600.23,544.86,602,542.05,602,536.32Z"/><path class="cls-1" d="M619,553V482.66h10.65V553Z"/><path class="cls-1" d="M634.45,538.33v-1.61H644.7v1.91c0,4.12,1.6,6.23,4.72,6.23s4.62-1.81,4.62-5.53a5.15,5.15,0,0,0-1.21-3.31c-1.5-2.11-2.71-2.82-6.22-4.83a40.1,40.1,0,0,1-4.22-2.61,45.59,45.59,0,0,1-3.52-2.91c-2.71-2.71-3.92-6.23-3.92-10.75,0-8.74,5.12-14.17,14.37-14.17,8.84,0,14.37,5.73,14.37,15v1.11H653.64v-1.41c0-3.72-1.41-5.53-4.22-5.53s-4.12,1.61-4.12,4.83c0,3.71,2.61,5.92,7.84,8.74,3.61,2,5.12,2.91,7.63,5.42,2.72,2.52,3.82,5.93,3.82,10.25,0,9.25-5.12,14.87-14.67,14.87C640.18,554,634.45,548.28,634.45,538.33Z"/></svg>